HIERARCHY
ROOT root
{
	OFFSET 0.000000 0.000000 0.000000
	CHANNELS 6 Xposition Yposition Zposition Zrotation Yrotation Xrotation
	JOINT lhip
	{
		OFFSET 0.058581 -0.082280 -0.017664
		CHANNELS 3 Zrotation Yrotation Xrotation
		JOINT lknee
		{
			OFFSET 0.043451 -0.386469 0.008037
			CHANNELS 3 Zrotation Yrotation Xrotation
			JOINT lankle
			{
				OFFSET -0.014790 -0.426874 -0.037428
				CHANNELS 3 Zrotation Yrotation Xrotation
				JOINT ltoe
				{
					OFFSET 0.041054 -0.060286 0.122042
					CHANNELS 3 Zrotation Yrotation Xrotation
					End Site
					{
						OFFSET 0.000000 0.000000 0.000000
					}
				}
			}
		}
	}
	JOINT rhip
	{
		OFFSET -0.060310 -0.090513 -0.013543
		CHANNELS 3 Zrotation Yrotation Xrotation
		JOINT rknee
		{
			OFFSET -0.043257 -0.383688 -0.004843
			CHANNELS 3 Zrotation Yrotation Xrotation
			JOINT rankle
			{
				OFFSET 0.019056 -0.420046 -0.034562
				CHANNELS 3 Zrotation Yrotation Xrotation
				JOINT rtoe
				{
					OFFSET -0.034840 -0.062106 0.130323
					CHANNELS 3 Zrotation Yrotation Xrotation
					End Site
					{
						OFFSET 0.000000 0.000000 0.000000
					}
				}
			}
		}
	}
	JOINT lowerback
	{
		OFFSET 0.004439 0.124404 -0.038385
		CHANNELS 3 Zrotation Yrotation Xrotation
		JOINT upperback
		{
			OFFSET 0.004488 0.137956 0.026820
			CHANNELS 3 Zrotation Yrotation Xrotation
			JOINT chest
			{
				OFFSET -0.002265 0.056032 0.002855
				CHANNELS 3 Zrotation Yrotation Xrotation
				JOINT lowerneck
				{
					OFFSET -0.013390 0.211636 -0.033468
					CHANNELS 3 Zrotation Yrotation Xrotation
					JOINT upperneck
					{
						OFFSET 0.010113 0.088937 0.050410
						CHANNELS 3 Zrotation Yrotation Xrotation
						End Site
						{
							OFFSET 0.000000 0.000000 0.000000
						}
					}
				}
				JOINT lclavicle
				{
					OFFSET 0.071702 0.114000 -0.018898
					CHANNELS 3 Zrotation Yrotation Xrotation
					JOINT lshoulder
					{
						OFFSET 0.122921 0.045205 -0.019046
						CHANNELS 3 Zrotation Yrotation Xrotation
						JOINT lelbow
						{
							OFFSET 0.255332 -0.015649 -0.022946
							CHANNELS 3 Zrotation Yrotation Xrotation
							JOINT lwrist
							{
								OFFSET 0.265709 0.012698 -0.007375
								CHANNELS 3 Zrotation Yrotation Xrotation
								End Site
								{
									OFFSET 0.000000 0.000000 0.000000
								}
							}
						}
					}
				}
				JOINT rclavicle
				{
					OFFSET -0.082954 0.112472 -0.023707
					CHANNELS 3 Zrotation Yrotation Xrotation
					JOINT rshoulder
					{
						OFFSET -0.113228 0.046853 -0.008472
						CHANNELS 3 Zrotation Yrotation Xrotation
						JOINT relbow
						{
							OFFSET -0.260127 -0.014369 -0.031269
							CHANNELS 3 Zrotation Yrotation Xrotation
							JOINT rwrist
							{
								OFFSET -0.269108 0.006794 -0.006027
								CHANNELS 3 Zrotation Yrotation Xrotation
								End Site
								{
									OFFSET 0.000000 0.000000 0.000000
								}
							}
						}
					}
				}
			}
		}
	}
}
MOTION
Frames: 17
Frame Time: 0.033333
0.799168 0.274331 0.984372 85.804510 -1.762834 84.460762 0.743112 0.216368 -18.634502 -2.749594 1.177895 13.092711 -0.893871 8.879277 -5.557837 0.000000 -0.000000 0.000000 1.797977 -5.050853 13.748786 -0.185288 7.954327 8.873791 -0.459009 -6.619578 -18.208615 0.000000 -0.000000 0.000000 2.568820 5.720379 13.266403 -0.553085 0.107384 -3.831063 -1.484838 1.201598 2.082778 1.554760 5.044243 -8.957552 -4.745607 -1.818689 12.751484 -31.240286 6.969846 -2.456355 -51.738187 -0.231667 9.181565 3.622808 -24.539300 10.684416 -2.619236 -1.086524 -0.453439 30.059333 1.701807 -2.762412 47.975285 12.352863 13.944749 -10.913482 29.630907 -7.987050 2.584751 3.648317 -5.478181 
0.837476 0.277640 0.976346 85.060299 -1.618299 85.025844 0.882856 0.189356 -18.224229 -2.091151 -1.067674 2.241691 -0.901630 7.322773 -5.761158 0.000000 -0.000000 0.000000 0.976102 -4.939895 15.494671 0.211840 9.070307 9.737605 0.083831 -6.236823 -19.626269 0.000000 -0.000000 0.000000 2.916319 5.977521 12.939188 -0.707835 0.575505 -3.539583 -1.588781 1.710244 1.912638 1.753757 5.487445 -8.883882 -5.086810 -2.598540 12.637960 -31.563848 7.224201 -2.722569 -51.791197 0.165336 9.391745 3.770204 -24.580631 10.339463 -2.036242 -1.336320 -0.450295 29.990622 1.943445 -2.636115 47.473008 12.877662 13.776489 -11.355166 30.387991 -8.418980 2.125482 4.598608 -5.202598 
0.878207 0.281036 0.968755 84.567816 -1.615217 85.334655 0.918003 0.433267 -18.736831 -2.306237 -0.888452 -1.709250 -2.024819 6.754482 -7.391870 0.000000 -0.000000 0.000000 0.056470 -4.857375 17.222695 0.548169 9.983832 11.658330 1.273378 -5.798186 -20.432497 0.000000 -0.000000 0.000000 2.724789 6.415156 12.630334 -0.642888 0.709588 -3.397727 -1.537509 2.020725 1.860924 2.090452 5.902034 -8.834322 -5.207000 -2.606021 12.822098 -31.511716 7.797850 -2.867025 -52.297286 0.373590 9.369252 4.028868 -24.077381 10.359558 -2.057732 -1.447772 -0.541808 29.892282 1.972004 -2.680613 47.370960 13.247408 13.703385 -11.531389 30.324558 -8.752219 2.263965 4.460090 -5.233311 
0.921243 0.285222 0.962547 84.532107 -1.990987 85.343373 0.826624 -1.286901 -19.882315 -2.798305 0.178103 2.540437 -1.394369 7.642343 -6.770587 0.000000 -0.000000 0.000000 -0.726374 -4.394728 18.404813 0.506773 10.897871 15.021154 2.448843 -5.872701 -20.517973 0.000000 -0.000000 0.000000 2.053157 7.175887 12.423050 -0.357698 0.470788 -3.274572 -1.462975 2.033887 1.858006 2.323256 5.625822 -8.818436 -5.304442 -2.660940 13.006066 -31.477777 8.019747 -2.904713 -52.614855 0.514670 9.581236 4.338280 -23.611348 10.234852 -1.744186 -0.720475 -1.160300 30.290423 1.902114 -2.872448 47.162417 13.116979 14.013500 -12.006250 29.683855 -9.040680 2.352456 4.255106 -4.971200 
0.968089 0.289094 0.958311 84.185800 -2.496875 85.123961 0.438324 -2.953741 -19.688225 -4.011195 -1.565666 7.447461 -0.863630 6.981375 -5.112735 0.000000 -0.000000 0.000000 -1.421811 -3.849350 18.590840 0.074429 10.783785 20.342194 3.582886 -5.265965 -18.958029 0.000000 -0.000000 0.000000 1.077044 7.794902 11.647384 -0.072646 0.522552 -2.577594 -1.386733 2.036546 1.828629 2.546803 5.295519 -8.016897 -5.102570 -2.254253 12.184639 -31.513747 7.950095 -2.540220 -52.528476 0.926685 9.627236 4.559848 -23.880159 10.053981 -3.028400 -0.299622 -1.476062 30.552002 1.677113 -2.717720 47.546747 12.505532 14.099309 -12.632734 28.839215 -9.026769 3.404682 3.067197 -4.779871 
1.016604 0.293695 0.958470 84.387289 -3.396796 85.175450 -0.549563 -4.250772 -19.837959 -5.316678 -3.488781 11.672669 -1.077059 5.461962 -1.337424 0.000000 -0.000000 0.000000 -2.530088 -3.318361 17.614735 0.116581 10.041215 26.310612 5.185934 -4.546209 -12.717732 0.000000 -0.000000 0.000000 -0.122553 7.883961 11.166284 -0.041351 0.534463 -2.980576 -1.585483 2.035861 1.789571 2.917819 5.038052 -7.727963 -4.740694 -1.961758 12.975498 -32.063558 8.642837 -2.956794 -51.443568 0.684664 9.839493 4.340724 -22.882746 10.061130 -3.543643 -1.385275 -0.498766 31.819508 0.659145 -3.107805 47.811865 11.707343 14.790204 -12.676761 26.646941 -9.432576 3.753782 3.264923 -3.845948 
1.065343 0.298810 0.962827 86.244080 -3.880823 84.495149 -1.909169 -5.535279 -19.160120 -6.580222 -3.789158 17.025771 1.161705 6.394525 -2.908174 0.000000 -0.000000 0.000000 -2.882403 -3.232606 15.417439 0.476827 7.852534 34.841318 7.369668 -4.572719 -1.313318 0.000000 -0.000000 0.000000 -0.632588 7.287226 11.046561 0.061574 0.025762 -3.199304 -1.841899 1.317850 1.713951 2.729621 3.325782 -6.721021 -4.123454 -0.901689 12.893766 -31.679490 8.719200 -2.321448 -51.953630 0.360227 9.492566 5.473536 -21.287207 9.897780 -5.255919 -0.573056 -0.450279 31.988323 -0.416020 -3.068699 49.321735 10.796191 14.803954 -13.001161 24.399495 -10.503799 4.517822 2.159144 -3.975973 
1.109193 0.303429 0.967150 86.494965 -4.104499 84.031185 -3.186025 -5.577536 -17.049545 -7.130729 -4.818104 19.034561 5.093115 7.289590 -4.373318 0.000000 -0.000000 0.000000 -3.054008 -3.134152 10.428536 1.114150 7.645683 44.674557 5.816650 -4.970802 10.764301 0.000000 -0.000000 0.000000 -0.871367 6.464474 11.061375 0.110249 0.777547 -3.128256 -2.073932 1.115506 2.015732 2.319724 2.205197 -6.665339 -3.913329 0.367724 12.148984 -31.613221 8.395811 -1.918401 -51.896916 -0.528604 9.027576 5.772105 -21.489071 9.813172 -6.377715 0.629674 -0.958072 31.887422 -0.587262 -2.612482 50.480863 10.025134 14.842475 -13.208934 21.871731 -12.047548 5.654133 1.942314 -4.279168 
1.152148 0.307552 0.971292 86.849737 -4.322642 83.698851 -4.904601 -5.437282 -14.032049 -6.864631 -5.964458 19.286970 8.559794 7.835392 -5.091437 0.000000 -0.000000 0.000000 -2.969923 -2.283707 4.806967 1.825294 6.428235 53.574440 3.493868 -8.145920 21.913057 0.000000 -0.000000 0.000000 -1.332890 4.869387 11.092739 0.231888 1.630687 -2.862137 -2.152691 0.872108 2.061732 1.899621 1.372315 -6.989268 -4.142630 1.560187 12.009000 -31.900171 7.531596 -1.135407 -51.116710 -1.617827 8.621099 5.618671 -21.569744 9.578147 -7.993537 0.372485 -1.387470 32.478922 -0.469460 -2.148358 50.336500 9.517662 15.496075 -12.552671 19.813589 -13.446837 6.821155 1.614177 -4.047098 
1.194129 0.309692 0.977186 87.903011 -4.063486 82.844030 -6.147779 -5.203055 -9.961956 -6.140052 -7.337609 18.633873 9.762191 8.353633 -6.162233 0.000000 -0.000000 0.000000 -2.389923 -1.432957 0.113730 0.954572 3.674857 60.096860 1.370941 -11.428098 18.104713 0.000000 -0.000000 0.000000 -1.581654 3.285237 11.854892 0.620866 1.662497 -3.289001 -1.945244 0.220854 2.366900 1.986003 1.929534 -6.900104 -4.902805 2.022434 12.226315 -31.846811 7.113490 -0.808456 -50.878715 -2.604463 8.506009 5.447766 -22.057160 9.488687 -8.092418 -0.407152 -1.681878 33.017995 -0.142934 -2.055314 50.031560 8.734451 16.004771 -11.722295 17.922524 -12.532948 7.392078 1.314845 -3.060981 
1.235777 0.310456 0.984044 88.758843 -3.502165 81.629939 -6.536744 -3.599263 -4.952959 -5.687807 -9.708753 16.910604 9.785051 8.639883 -7.713702 0.000000 -0.000000 0.000000 -1.727335 -1.459728 -3.810360 -0.844990 1.838996 63.452597 0.115537 -12.186610 9.443762 0.000000 -0.000000 0.000000 -1.430661 1.752711 12.561596 0.886140 1.589182 -3.164654 -1.700884 -0.281461 2.712471 2.127728 2.984440 -6.434876 -5.360229 1.863891 12.166082 -31.315390 6.319728 -0.662517 -51.262421 -3.616202 8.205897 5.468608 -22.599148 9.952204 -7.796619 0.819587 -1.607605 33.222822 0.255489 -1.950196 50.287271 7.980392 15.551178 -11.350151 16.321602 -11.368866 7.839778 0.382661 -2.000773 
1.274638 0.310717 0.990229 89.855238 -2.949714 80.854727 -6.257667 -1.873508 -0.334709 -5.397046 -12.119145 14.460895 9.360056 8.502024 -8.596039 0.000000 -0.000000 0.000000 -1.401437 -0.858582 -7.865658 -1.353780 -0.271436 64.312582 1.263688 -12.759051 4.835998 0.000000 -0.000000 0.000000 -1.370279 -0.008698 13.388848 1.113076 1.459268 -3.082811 -1.525620 -0.772245 2.654903 2.278076 3.947121 -6.351317 -5.356840 1.593298 12.216574 -30.801149 5.483029 -0.380104 -51.292875 -4.867121 8.199797 5.657813 -23.755572 8.983272 -6.952446 0.822833 -1.443221 33.219013 0.358675 -1.842925 50.979898 6.858487 15.122798 -11.453625 16.174597 -11.844037 7.566485 0.393241 -2.406277 
1.312666 0.310697 0.994809 90.956829 -2.373546 80.440592 -5.485047 -0.261134 4.042347 -5.148799 -14.396160 11.592837 8.931999 8.309223 -9.196524 0.000000 -0.000000 0.000000 -1.445007 -0.949429 -11.785284 -0.897975 -1.797802 62.354837 1.662646 -12.090420 0.502871 0.000000 -0.000000 0.000000 -1.220484 -1.556253 13.818050 1.343056 1.057318 -2.838947 -1.346010 -1.278752 2.560536 2.356043 4.749686 -5.975443 -5.358658 1.177557 11.837139 -30.278173 4.971681 -0.402723 -51.156747 -6.149626 8.131303 5.840522 -25.503402 8.402064 -6.736512 1.174696 -1.224069 33.211370 0.163452 -1.687265 51.515936 5.984581 14.454049 -11.823646 16.498958 -12.286157 8.108883 0.402123 -2.460979 
1.349442 0.310234 0.996825 91.979141 -1.609635 80.184094 -4.190955 0.851759 8.194693 -4.807047 -16.235675 8.590636 7.995909 7.973694 -10.058490 0.000000 -0.000000 0.000000 -1.362717 -0.837340 -14.716362 -0.460804 -3.303760 57.143131 3.037634 -11.969075 -3.805709 0.000000 -0.000000 0.000000 -0.697561 -2.884562 14.509274 1.440900 0.707323 -3.073426 -1.129472 -1.958746 2.522540 2.276277 5.483644 -6.210871 -5.269261 0.657611 11.883280 -29.435725 4.391930 -0.315104 -51.373242 -6.946756 8.660574 5.457525 -26.655408 8.381566 -4.283512 0.392306 -2.748646 33.081471 -0.291463 -1.738811 51.903966 4.950448 14.345888 -11.573187 17.340255 -11.577056 7.553504 0.587925 -3.393212 
1.384816 0.309467 0.995700 92.831279 -1.048286 80.284492 -2.971910 1.670493 11.297000 -4.685978 -17.282198 6.854690 7.252019 7.542223 -11.269368 0.000000 -0.000000 0.000000 -1.639408 -0.505287 -17.184911 -0.096453 -4.759467 49.626009 4.445046 -11.694955 -6.173821 0.000000 -0.000000 0.000000 -0.493551 -4.042448 15.116283 1.531995 0.407126 -3.173848 -0.806646 -2.422163 2.437821 2.292918 6.075709 -6.553003 -5.212700 -0.057668 11.713657 -28.869382 4.110310 -0.595092 -50.712850 -8.345339 8.942138 5.330760 -29.432079 9.625338 -4.717351 -0.153316 -0.432262 33.023147 -0.874212 -2.110956 52.230918 3.874791 14.295775 -12.075574 18.736883 -10.742186 7.442881 0.966613 -2.236103 
1.419690 0.308623 0.991750 93.377084 -0.777236 80.670494 -2.134400 2.455882 13.777979 -4.460783 -18.575998 5.744928 6.684549 7.195930 -12.842785 0.000000 -0.000000 0.000000 -1.845897 -0.664891 -18.912224 -0.636211 -6.030797 39.650804 5.142276 -11.932469 -6.090909 0.000000 -0.000000 0.000000 -0.413225 -4.835543 15.315144 1.513027 0.108351 -3.266267 -0.428480 -2.834092 2.458534 2.085090 6.216736 -7.039823 -4.789114 -0.253632 11.579252 -28.413038 3.991473 -0.792498 -49.976433 -9.773837 9.109197 4.927939 -31.626723 9.995953 -3.992066 -1.083661 0.071382 32.942373 -1.359666 -2.229266 52.517412 3.020520 14.317997 -11.916855 20.008403 -10.489958 7.379754 1.110261 -2.569512 
1.454241 0.306986 0.985485 93.596706 -0.752028 81.316345 -1.654300 3.071585 15.495907 -4.268306 -19.068115 5.549873 6.360647 6.936094 -14.664540 0.000000 -0.000000 0.000000 -1.751884 -0.795933 -19.754163 -1.085315 -6.034125 27.649906 5.884358 -12.318708 -3.246371 0.000000 -0.000000 0.000000 -0.541010 -5.201206 15.490047 1.438733 -0.220846 -3.585408 0.055999 -3.148125 2.444049 1.772501 6.113915 -7.469278 -4.439665 -0.193871 11.448300 -27.833639 4.069175 -0.937240 -49.620063 -11.222785 9.189742 4.892121 -33.671556 9.885041 -2.170454 -1.285959 -0.198408 33.080290 -1.816704 -2.535535 52.552050 2.750166 14.576204 -12.049403 20.111198 -10.412574 6.491653 1.140188 -2.294836 
